<svg version="1.1" id="Layer_1" xmlns="http://www.w3.org/2000/svg" xmlns:xlink="http://www.w3.org/1999/xlink" x="0px" y="0px"
	 width="100%" viewBox="0 0 116 56" enable-background="new 0 0 116 56" xml:space="preserve">
<path fill="#0071E3" opacity="0.8" stroke="none" 
	d="
M48.000000,1.000000 
	C54.687645,1.000000 61.375290,1.000000 68.249603,1.344078 
	C68.937531,2.095371 69.391388,2.772119 69.947067,2.869846 
	C80.206657,4.674178 89.344131,8.923696 96.663727,16.301376 
	C102.954788,22.642355 108.739777,29.499504 114.512611,36.327873 
	C115.581451,37.592148 115.707100,39.337276 112.844757,40.230305 
	C109.031685,41.419956 105.707542,44.128525 101.918617,45.459320 
	C98.967392,46.495899 96.573196,49.814079 92.353424,47.218773 
	C89.784492,45.638786 85.940216,45.870609 82.654167,45.770855 
	C74.936729,45.536587 73.902405,54.770626 67.616982,56.680161 
	C67.744652,56.786774 67.872330,56.893387 68.000000,57.000000 
	C67.555557,57.000000 67.111107,57.000000 66.700676,56.724083 
	C66.694359,54.941128 66.025871,52.978821 66.728073,52.009937 
	C69.110847,48.722233 71.978233,45.785751 74.968376,42.491035 
	C80.433876,41.208672 85.591499,40.150372 90.540474,39.134888 
	C85.004700,38.966892 79.141495,38.248093 73.562012,41.962921 
	C71.846848,42.863411 70.520103,43.760799 69.139969,44.566788 
	C67.375946,45.596958 65.568863,46.553394 63.780334,47.541607 
	C63.550865,47.048088 63.321392,46.554569 63.091923,46.061050 
	C69.518982,35.311951 80.218857,34.002983 92.137238,33.847382 
	C90.091026,31.039402 88.788879,28.500113 86.790604,26.760403 
	C85.325806,25.485134 82.947502,25.259136 80.976341,24.565487 
	C80.976341,26.387363 80.976341,28.209240 80.976341,30.044477 
	C76.729263,29.960951 74.164215,27.089186 75.052414,22.983389 
	C76.164581,17.842247 75.059021,16.188259 69.710663,15.041674 
	C68.284531,14.735939 66.855591,14.317683 65.412193,14.238647 
	C56.563789,13.754133 47.642746,13.032046 40.106762,19.363331 
	C44.942101,25.131090 43.445160,29.264830 36.011330,30.599394 
	C36.598850,29.045113 37.136272,27.623365 37.647213,26.271683 
	C33.745903,22.923256 30.297153,25.210012 26.202579,33.804836 
	C37.419483,34.267517 48.494095,35.028954 54.185078,47.063953 
	C52.231880,46.717644 50.582294,45.794632 48.948498,44.844467 
	C47.307316,43.890003 45.681862,42.908489 43.861519,41.607582 
	C38.242912,40.273872 32.812305,39.271408 27.381702,38.268948 
	C27.363661,38.499077 27.345617,38.729210 27.327576,38.959339 
	C32.666412,40.224014 38.005249,41.488689 43.569473,42.991047 
	C47.681526,47.133003 52.056767,50.746170 52.000000,57.000000 
	C51.555553,57.000000 51.111111,57.000000 50.664642,56.724251 
	C47.683235,54.437660 44.884541,52.743687 42.457134,49.500347 
	C38.063095,43.629314 31.101093,44.927990 24.638412,47.060585 
	C22.997942,47.601921 20.801153,47.584816 19.210043,46.948711 
	C13.063218,44.491268 7.057987,41.679653 1.000000,39.000000 
	C1.000000,38.555553 1.000000,38.111111 1.353981,37.309834 
	C2.390381,36.548450 3.266537,36.296436 3.724322,35.715015 
	C7.140353,31.376408 10.172015,26.695639 13.892815,22.644394 
	C22.820036,12.924337 33.299877,5.575679 46.566864,2.900339 
	C47.148659,2.783018 47.526928,1.656450 48.000000,1.000000 
M18.447805,33.050705 
	C19.654108,31.320290 20.850309,29.582729 22.068289,27.860573 
	C33.374691,11.873937 53.641548,5.210363 72.284477,10.922782 
	C85.379356,14.935213 93.641914,24.251883 100.726364,35.171688 
	C101.641159,36.581734 103.238037,37.549263 104.518959,38.721775 
	C104.845108,38.348045 105.171265,37.974312 105.497414,37.600582 
	C96.751640,19.062756 81.576378,7.635404 62.674553,6.271016 
	C39.023537,4.563818 22.869003,17.078094 11.864974,37.380131 
	C16.137636,39.272774 16.912050,36.198429 18.447805,33.050705 
z"/>
<path fill="#000000" opacity="0" stroke="none" 
	d="
M52.464653,57.000000 
	C52.056767,50.746170 47.681526,47.133003 43.746578,42.788059 
	C43.815369,42.211201 43.932442,42.075016 44.049519,41.938828 
	C45.681862,42.908489 47.307316,43.890003 48.948498,44.844467 
	C50.582294,45.794632 52.231880,46.717644 54.185078,47.063953 
	C48.494095,35.028954 37.419483,34.267517 26.202579,33.804836 
	C30.297153,25.210012 33.745903,22.923256 37.647213,26.271683 
	C37.136272,27.623365 36.598850,29.045113 36.011330,30.599394 
	C43.445160,29.264830 44.942101,25.131090 40.106762,19.363331 
	C47.642746,13.032046 56.563789,13.754133 65.412193,14.238647 
	C66.855591,14.317683 68.284531,14.735939 69.710663,15.041674 
	C75.059021,16.188259 76.164581,17.842247 75.052414,22.983389 
	C74.164215,27.089186 76.729263,29.960951 80.976341,30.044477 
	C80.976341,28.209240 80.976341,26.387363 80.976341,24.565487 
	C82.947502,25.259136 85.325806,25.485134 86.790604,26.760403 
	C88.788879,28.500113 90.091026,31.039402 92.137238,33.847382 
	C80.218857,34.002983 69.518982,35.311951 63.091923,46.061050 
	C63.321392,46.554569 63.550865,47.048088 63.780334,47.541607 
	C65.568863,46.553394 67.375946,45.596958 69.139969,44.566788 
	C70.520103,43.760799 71.846848,42.863411 73.745094,42.162231 
	C74.415413,42.450256 74.537956,42.582680 74.660500,42.715103 
	C71.978233,45.785751 69.110847,48.722233 66.728073,52.009937 
	C66.025871,52.978821 66.694359,54.941128 66.367340,56.724083 
	C61.643101,57.000000 57.286201,57.000000 52.464653,57.000000 
z"/>
<path fill="#000000" opacity="0" stroke="none" 
	d="
M68.468658,57.000000 
	C67.872330,56.893387 67.744652,56.786774 67.616982,56.680161 
	C73.902405,54.770626 74.936729,45.536587 82.654167,45.770855 
	C85.940216,45.870609 89.784492,45.638786 92.353424,47.218773 
	C96.573196,49.814079 98.967392,46.495899 101.918617,45.459320 
	C105.707542,44.128525 109.031685,41.419956 112.844757,40.230305 
	C115.707100,39.337276 115.581451,37.592148 114.512611,36.327873 
	C108.739777,29.499504 102.954788,22.642355 96.663727,16.301376 
	C89.344131,8.923696 80.206657,4.674178 69.947067,2.869846 
	C69.391388,2.772119 68.937531,2.095371 68.718140,1.344078 
	C84.954117,1.000000 100.908226,1.000000 116.931168,1.000000 
	C116.931168,19.567045 116.931168,38.134388 116.931168,57.000000 
	C100.980339,57.000000 84.958824,57.000000 68.468658,57.000000 
z"/>
<path fill="#000000" opacity="0" stroke="none" 
	d="
M47.531342,1.000000 
	C47.526928,1.656450 47.148659,2.783018 46.566864,2.900339 
	C33.299877,5.575679 22.820036,12.924337 13.892815,22.644394 
	C10.172015,26.695639 7.140353,31.376408 3.724322,35.715015 
	C3.266537,36.296436 2.390381,36.548450 1.353981,36.976501 
	C1.000000,25.063612 1.000000,13.127224 1.000000,1.000000 
	C16.353701,1.000000 31.708193,1.000000 47.531342,1.000000 
z"/>
<path fill="#000000" opacity="0" stroke="none" 
	d="
M1.000000,39.469711 
	C7.057987,41.679653 13.063218,44.491268 19.210043,46.948711 
	C20.801153,47.584816 22.997942,47.601921 24.638412,47.060585 
	C31.101093,44.927990 38.063095,43.629314 42.457134,49.500347 
	C44.884541,52.743687 47.683235,54.437660 50.331310,56.724251 
	C33.774593,57.000000 17.549189,57.000000 1.000000,57.000000 
	C1.000000,51.317238 1.000000,45.628326 1.000000,39.469711 
z"/>
<path fill="#000000" opacity="0" stroke="none" 
	d="
M18.253906,33.376938 
	C16.912050,36.198429 16.137636,39.272774 11.864974,37.380131 
	C22.869003,17.078094 39.023537,4.563818 62.674553,6.271016 
	C81.576378,7.635404 96.751640,19.062756 105.497414,37.600582 
	C105.171265,37.974312 104.845108,38.348045 104.518959,38.721775 
	C103.238037,37.549263 101.641159,36.581734 100.726364,35.171688 
	C93.641914,24.251883 85.379356,14.935213 72.284477,10.922782 
	C53.641548,5.210363 33.374691,11.873937 22.068289,27.860573 
	C20.850309,29.582729 19.654108,31.320290 18.253906,33.376938 
z"/>
<path fill="#000000" opacity="0" stroke="none" 
	d="
M43.521187,42.550377 
	C38.005249,41.488689 32.666412,40.224014 27.327576,38.959339 
	C27.345617,38.729210 27.363661,38.499077 27.381702,38.268948 
	C32.812305,39.271408 38.242912,40.273872 43.861519,41.607582 
	C43.932442,42.075016 43.815369,42.211201 43.521187,42.550377 
z"/>
<path fill="#000000" opacity="0" stroke="none" 
	d="
M74.109787,42.118519 
	C79.141495,38.248093 85.004700,38.966892 90.540474,39.134888 
	C85.591499,40.150372 80.433876,41.208672 74.968376,42.491035 
	C74.537956,42.582680 74.415413,42.450256 74.109787,42.118519 
z"/>
</svg>
