<svg xmlns="http://www.w3.org/2000/svg" xmlns:xlink="http://www.w3.org/1999/xlink" viewBox="0 0 66.42 54.16">
  <defs>
    <style>
      .cls-1 {
        fill: url(#Sfumatura_senza_nome_15);
      }

      .cls-2 {
        fill: #fff;
      }
    </style>
    <linearGradient id="Sfumatura_senza_nome_15" data-name="Sfumatura senza nome 15" x1="58.02" y1="17.26" x2="16.46" y2="57.95" gradientUnits="userSpaceOnUse">
      <stop offset="0" stop-color="#ff7854"/>
      <stop offset="1" stop-color="#fd267d"/>
    </linearGradient>
  </defs>
  <g id="Livello_2" data-name="Livello 2">
    <g id="Livello_1-2" data-name="Livello 1">
      <g>
        <path class="cls-1" d="M57.31,38.67,36.23,17.59a4.22,4.22,0,0,0-6,0L8.45,39.4a4.21,4.21,0,0,0,0,6L16,52.92a4.21,4.21,0,0,0,6,0L31,43.86a2.6,2.6,0,0,1,3.68,0l8.7,8.7a4.22,4.22,0,0,0,6,0l7.92-7.92A4.22,4.22,0,0,0,57.31,38.67Z"/>
        <path class="cls-2" d="M29.15,40.73a1.41,1.41,0,0,1-1-.47c-4.58-5-11-8.45-13.92-9.81l-.27,2.42a1.77,1.77,0,0,1-1.11,1.44A1.74,1.74,0,0,1,11,34C5.83,29.56,1.7,21.19.16,17.8a1.75,1.75,0,0,1,2.21-2.36l5.39,2A41.71,41.71,0,0,1,1.06,2.11a1.72,1.72,0,0,1,1-2A1.75,1.75,0,0,1,4.25.8c6.24,9.47,16.42,14.26,18.4,15.13a1.72,1.72,0,0,1,1,1.08L30.49,38.9a1.39,1.39,0,0,1-.64,1.64A1.37,1.37,0,0,1,29.15,40.73ZM14,28.33a1.69,1.69,0,0,1,.73.16,51.75,51.75,0,0,1,13.15,8.66L21.74,17.71C19.52,16.73,9.77,12,3.3,3a40.15,40.15,0,0,0,6.54,14,1.75,1.75,0,0,1-2,2.68L2.23,17.52C3.83,21,7.5,28.15,12,32.19l.26-2.3a1.77,1.77,0,0,1,.88-1.34A1.72,1.72,0,0,1,14,28.33Z"/>
        <path class="cls-2" d="M37.27,40.73a1.37,1.37,0,0,1-.7-.19,1.39,1.39,0,0,1-.64-1.64L42.81,17a1.72,1.72,0,0,1,1-1.08c2-.87,12.16-5.66,18.4-15.13A1.75,1.75,0,0,1,64.32.14a1.72,1.72,0,0,1,1,2,41.71,41.71,0,0,1-6.7,15.33l5.39-2a1.75,1.75,0,0,1,2.21,2.36C64.73,21.19,60.59,29.56,55.4,34a1.74,1.74,0,0,1-1.78.3,1.77,1.77,0,0,1-1.11-1.44l-.26-2.42c-2.88,1.36-9.35,4.76-13.93,9.81A1.41,1.41,0,0,1,37.27,40.73Zm7.41-23-6.1,19.44a51.73,51.73,0,0,1,13.14-8.66,1.75,1.75,0,0,1,1.59.06,1.8,1.8,0,0,1,.89,1.34l.25,2.3c4.47-4,8.14-11.21,9.74-14.67L58.61,19.6a1.76,1.76,0,0,1-2-2.68A40.15,40.15,0,0,0,63.12,3C56.65,12,46.9,16.73,44.68,17.71Z"/>
      </g>
    </g>
  </g>
</svg>
