<svg version="1.1" id="Layer_1" xmlns="http://www.w3.org/2000/svg" xmlns:xlink="http://www.w3.org/1999/xlink" x="0px" y="0px"
	 width="100%" viewBox="0 0 80 80" enable-background="new 0 0 80 80" xml:space="preserve">
<path fill="#000000" opacity="1.000000" stroke="none" 
	d="
M45.000000,81.000000 
	C30.000000,81.000000 15.500000,81.000000 1.000000,81.000000 
	C1.000000,54.333332 1.000000,27.666666 1.000000,1.000000 
	C27.666666,1.000000 54.333332,1.000000 81.000000,1.000000 
	C81.000000,27.666666 81.000000,54.333332 81.000000,81.000000 
	C69.166664,81.000000 57.333332,81.000000 45.000000,81.000000 
M34.489780,62.003319 
	C35.087589,62.873222 35.685398,63.743126 36.546364,64.995964 
	C37.323601,58.208820 36.548260,56.364807 32.134861,52.997444 
	C31.156361,52.250866 30.363266,51.200996 29.651447,50.175140 
	C25.581018,44.308949 26.316706,38.477528 30.442867,32.521778 
	C22.020092,27.618656 13.324464,23.464901 9.691146,13.606059 
	C6.769696,24.668465 11.389931,32.895020 19.102741,41.358353 
	C16.393036,40.635784 15.412565,40.374336 13.772012,39.936867 
	C16.642155,47.528957 18.862328,54.706753 26.224749,58.502243 
	C26.352242,58.567970 26.653059,58.297482 27.045797,58.094631 
	C26.751942,56.939140 26.449047,55.748112 26.146152,54.557083 
	C26.460527,54.306030 26.774902,54.054977 27.089277,53.803925 
	C29.415905,56.339195 31.742533,58.874466 34.489780,62.003319 
M62.293228,25.937857 
	C58.817719,27.905718 55.342213,29.873579 51.729420,31.919170 
	C52.238850,33.144276 52.572197,34.048088 52.982132,34.915710 
	C56.505367,42.372608 55.453358,48.227665 49.133671,53.235531 
	C45.392387,56.200203 44.469223,59.680603 45.090347,62.901333 
	C48.588047,60.467522 52.464119,57.770432 55.586521,55.597763 
	C55.541176,55.853771 55.303116,57.197727 55.065056,58.541683 
	C55.525635,58.802845 55.986217,59.064007 56.446796,59.325169 
	C60.540813,53.269958 64.634834,47.214752 69.507729,40.007553 
	C66.468376,40.156528 65.306679,40.213470 64.063583,40.274399 
	C73.872559,24.564972 73.913467,24.438227 72.635063,14.599977 
	C69.549049,18.081041 66.233154,21.821415 62.293228,25.937857 
M50.193176,47.245590 
	C50.319843,43.878117 51.146179,40.342609 50.388458,37.187531 
	C49.524818,33.591412 43.435349,30.680729 40.229115,31.366053 
	C34.825756,32.521008 31.292629,36.062061 31.002106,40.613766 
	C30.617159,46.644825 33.059555,50.377888 38.571083,52.182533 
	C42.900330,53.600063 46.995953,52.011978 50.193176,47.245590 
z"/>
<path fill="#CD8837" opacity="1.000000" stroke="none" 
	d="
M34.279472,61.706528 
	C31.742533,58.874466 29.415905,56.339195 27.089277,53.803925 
	C26.774902,54.054977 26.460527,54.306030 26.146152,54.557083 
	C26.449047,55.748112 26.751942,56.939140 27.045797,58.094631 
	C26.653059,58.297482 26.352242,58.567970 26.224749,58.502243 
	C18.862328,54.706753 16.642155,47.528957 13.772012,39.936867 
	C15.412565,40.374336 16.393036,40.635784 19.102741,41.358353 
	C11.389931,32.895020 6.769696,24.668465 9.691146,13.606059 
	C13.324464,23.464901 22.020092,27.618656 30.442867,32.521778 
	C26.316706,38.477528 25.581018,44.308949 29.651447,50.175140 
	C30.363266,51.200996 31.156361,52.250866 32.134861,52.997444 
	C36.548260,56.364807 37.323601,58.208820 36.546364,64.995964 
	C35.685398,63.743126 35.087589,62.873222 34.279472,61.706528 
z"/>
<path fill="#CD8837" opacity="1.000000" stroke="none" 
	d="
M62.605247,25.749825 
	C66.233154,21.821415 69.549049,18.081041 72.635063,14.599977 
	C73.913467,24.438227 73.872559,24.564972 64.063583,40.274399 
	C65.306679,40.213470 66.468376,40.156528 69.507729,40.007553 
	C64.634834,47.214752 60.540813,53.269958 56.446796,59.325169 
	C55.986217,59.064007 55.525635,58.802845 55.065056,58.541683 
	C55.303116,57.197727 55.541176,55.853771 55.586521,55.597763 
	C52.464119,57.770432 48.588047,60.467522 45.090347,62.901333 
	C44.469223,59.680603 45.392387,56.200203 49.133671,53.235531 
	C55.453358,48.227665 56.505367,42.372608 52.982132,34.915710 
	C52.572197,34.048088 52.238850,33.144276 51.729420,31.919170 
	C55.342213,29.873579 58.817719,27.905718 62.605247,25.749825 
z"/>
<path fill="#CD8837" opacity="1.000000" stroke="none" 
	d="
M49.932873,47.561745 
	C46.995953,52.011978 42.900330,53.600063 38.571083,52.182533 
	C33.059555,50.377888 30.617159,46.644825 31.002106,40.613766 
	C31.292629,36.062061 34.825756,32.521008 40.229115,31.366053 
	C43.435349,30.680729 49.524818,33.591412 50.388458,37.187531 
	C51.146179,40.342609 50.319843,43.878117 49.932873,47.561745 
z"/>
</svg>