<svg version="1.1" id="Layer_1" xmlns="http://www.w3.org/2000/svg" xmlns:xlink="http://www.w3.org/1999/xlink" x="0px" y="0px"
	 width="100%" viewBox="0 0 80 80" enable-background="new 0 0 80 80" xml:space="preserve">
<path fill="#000000" opacity="1.000000" stroke="none" 
	d="
M59.000290,81.000000 
	C39.333565,81.000000 20.166903,81.000000 1.000182,81.000000 
	C1.000121,54.333424 1.000121,27.666843 1.000061,1.000200 
	C27.666571,1.000133 54.333141,1.000133 80.999786,1.000067 
	C80.999855,27.666563 80.999855,54.333126 80.999924,80.999847 
	C73.833450,81.000000 66.666901,81.000000 59.000290,81.000000 
M30.009521,40.816341 
	C30.008074,41.813526 29.884224,42.828480 30.025923,43.804890 
	C30.716841,48.565811 33.842716,51.710842 38.085697,52.772972 
	C42.420841,53.858173 47.064301,53.155476 49.955250,48.957264 
	C52.867146,44.728638 52.746552,39.012722 50.098213,35.630573 
	C47.334351,32.100891 43.669132,30.408859 39.312363,31.107655 
	C34.349106,31.903723 31.290365,35.099270 30.009521,40.816341 
M25.541613,55.029236 
	C26.392746,55.724037 27.243879,56.418842 28.095015,57.113644 
	C28.516499,56.961369 28.937984,56.809093 29.359470,56.656818 
	C28.893551,54.395367 28.842995,51.936165 27.879200,49.911739 
	C25.543724,45.006145 25.287281,40.127457 27.399134,35.240730 
	C28.265888,33.235100 29.895960,31.559341 31.235483,29.652863 
	C22.222326,26.303940 14.415560,22.024019 9.155661,13.286056 
	C8.386763,24.149311 11.417467,32.487808 20.173981,38.272606 
	C16.617100,40.353409 19.426531,48.784725 25.541613,55.029236 
M62.079041,45.709961 
	C62.953087,43.208466 66.269753,40.863987 63.232056,38.568279 
	C65.761528,34.874176 68.900055,31.483660 70.596542,27.481827 
	C72.338341,23.373100 72.671028,18.667017 73.620392,14.222361 
	C73.184326,14.087614 72.748260,13.952868 72.312195,13.818122 
	C67.640945,22.396048 59.375751,26.192886 50.645382,29.841686 
	C57.147064,36.720467 58.026619,43.782188 53.101448,51.588509 
	C52.295559,52.865826 52.988117,55.088547 52.988117,56.874317 
	C53.578880,57.107563 54.169647,57.340805 54.760410,57.574051 
	C57.174026,53.871319 59.587643,50.168583 62.079041,45.709961 
z"/>
<path fill="#80989D" opacity="1.000000" stroke="none" 
	d="
M30.032412,40.403595 
	C31.290365,35.099270 34.349106,31.903723 39.312363,31.107655 
	C43.669132,30.408859 47.334351,32.100891 50.098213,35.630573 
	C52.746552,39.012722 52.867146,44.728638 49.955250,48.957264 
	C47.064301,53.155476 42.420841,53.858173 38.085697,52.772972 
	C33.842716,51.710842 30.716841,48.565811 30.025923,43.804890 
	C29.884224,42.828480 30.008074,41.813526 30.032412,40.403595 
z"/>
<path fill="#80989D" opacity="1.000000" stroke="none" 
	d="
M25.279266,54.776089 
	C19.426531,48.784725 16.617100,40.353409 20.173981,38.272606 
	C11.417467,32.487808 8.386763,24.149311 9.155661,13.286056 
	C14.415560,22.024019 22.222326,26.303940 31.235483,29.652863 
	C29.895960,31.559341 28.265888,33.235100 27.399134,35.240730 
	C25.287281,40.127457 25.543724,45.006145 27.879200,49.911739 
	C28.842995,51.936165 28.893551,54.395367 29.359470,56.656818 
	C28.937984,56.809093 28.516499,56.961369 28.095015,57.113644 
	C27.243879,56.418842 26.392746,55.724037 25.279266,54.776089 
z"/>
<path fill="#80989D" opacity="1.000000" stroke="none" 
	d="
M62.040154,46.087906 
	C59.587643,50.168583 57.174026,53.871319 54.760410,57.574051 
	C54.169647,57.340805 53.578880,57.107563 52.988117,56.874317 
	C52.988117,55.088547 52.295559,52.865826 53.101448,51.588509 
	C58.026619,43.782188 57.147064,36.720467 50.645382,29.841686 
	C59.375751,26.192886 67.640945,22.396048 72.312195,13.818122 
	C72.748260,13.952868 73.184326,14.087614 73.620392,14.222361 
	C72.671028,18.667017 72.338341,23.373100 70.596542,27.481827 
	C68.900055,31.483660 65.761528,34.874176 63.232056,38.568279 
	C66.269753,40.863987 62.953087,43.208466 62.040154,46.087906 
z"/>
</svg>